<svg xmlns="http://www.w3.org/2000/svg" xmlns:xlink="http://www.w3.org/1999/xlink" version="1.1" width="1000" height="1000" viewBox="0 0 1000 1000" xml:space="preserve">
<desc>Created with Fabric.js 3.5.0</desc>
<defs>
</defs>
<rect x="0" y="0" width="100%" height="100%" fill="rgba(255,255,255,0)"/>
<g transform="matrix(6.2682 0 0 6.2682 500.0013 500.0013)" id="322846">
<path style="stroke: rgb(6,47,56); stroke-width: 0; stroke-dasharray: none; stroke-linecap: butt; stroke-dashoffset: 0; stroke-linejoin: miter; stroke-miterlimit: 4; is-custom-font: none; font-file-url: none; fill: rgb(255,45,45); fill-rule: nonzero; opacity: 1;" vector-effect="non-scaling-stroke" transform=" translate(0, 0)" d="M -72.51655 -41.75039 C -72.51655 -58.74208 -58.74207 -72.51656 -41.75037999999999 -72.51656 L 41.75039000000001 -72.51656 L 41.75039000000001 -72.51656 C 58.74208000000001 -72.51656 72.51656000000001 -58.74208 72.51656000000001 -41.750389999999996 L 72.51656000000001 41.75038000000001 L 72.51656000000001 41.75038000000001 C 72.51656000000001 58.742070000000005 58.742080000000016 72.51655000000001 41.75039000000001 72.51655000000001 L -41.75037999999999 72.51655000000001 L -41.75037999999999 72.51655000000001 C -58.74206999999999 72.51655000000001 -72.51655 58.74207000000001 -72.51655 41.75038000000001 z" stroke-linecap="round"/>
</g>
<g transform="matrix(0.9091 0 0 0.9091 90.455 90.455)" id="64186">
<rect style="stroke: none; stroke-width: 0; stroke-dasharray: none; stroke-linecap: butt; stroke-dashoffset: 0; stroke-linejoin: miter; stroke-miterlimit: 4; is-custom-font: none; font-file-url: none; fill: rgb(255,255,255); fill-opacity: 0; fill-rule: nonzero; opacity: 1;" x="-50" y="-50" rx="0" ry="0" width="100" height="100"/>
</g>
<g transform="matrix(-1.6529 0 0 -1.6529 498.7839 516.5487)" id="468535">
<path style="stroke: none; stroke-width: 1; stroke-dasharray: none; stroke-linecap: butt; stroke-dashoffset: 0; stroke-linejoin: miter; stroke-miterlimit: 4; is-custom-font: none; font-file-url: none; fill: rgb(255,255,255); fill-rule: nonzero; opacity: 1;" transform=" translate(25.115, 20.585)" d="M 110.7 -215.36 Q 135.5 -215.36 152.03 -217.02 L 152.03 -217.02 L 152.03 -206 Q 124.48 -199.38 108.5 -158.06 L 108.5 -158.06 L -20.98 175.85 L -25.39 175.85 L -29.8 175.85 L -164.24 -170.73 Q -177.47 -204.89 -202.26 -206 L -202.26 -206 L -202.26 -217.02 Q -180.22 -215.36 -143.31 -215.36 L -143.31 -215.36 Q -95.92 -215.36 -72.78 -217.02 L -72.78 -217.02 L -72.78 -206 Q -93.72 -204.89 -102.81 -200.76 Q -111.9 -196.63 -111.9 -185.61 L -111.9 -185.61 Q -111.9 -176.24 -105.29 -159.71 L -105.29 -159.71 L -5.56 105.32 L 84.26 -127.75 Q 95.28 -157.51 95.28 -172.94 L 95.28 -172.94 Q 95.28 -190.02 83.43 -197.73 Q 71.58 -205.45 47.34 -206 L 47.34 -206 L 47.34 -217.02 Q 78.75 -215.36 110.7 -215.36 L 110.7 -215.36 Z" stroke-linecap="round"/>
</g>
<g transform="matrix(1.237 0 0 0.995 487.8002 631.4251)" id="133850">
<path style="stroke: none; stroke-width: 1; stroke-dasharray: none; stroke-linecap: butt; stroke-dashoffset: 0; stroke-linejoin: miter; stroke-miterlimit: 4; is-custom-font: none; font-file-url: none; fill: rgb(255,255,255); fill-rule: nonzero; opacity: 1;" vector-effect="non-scaling-stroke" transform=" translate(-256.0001, -256)" d="M 476.719 182.854 c -32.563 -12.953 -50.188 5.063 -57.219 14.328 c -7.344 9.75 -4.156 26.391 -1.031 19.313 c 4.625 -14.906 28.688 -14.906 36.438 0 c 7.781 14.922 -4.781 31.375 -22.5 33.766 c -23.25 3.141 -32.906 -16.172 -46.875 -31.875 c -13.969 -15.688 -35.094 -33.063 -65.719 -41.922 c -19.875 -5.75 -46.656 -1.141 -63.813 14.828 c -17.125 -15.969 -43.938 -20.578 -63.813 -14.828 c -30.625 8.859 -51.719 26.234 -65.719 41.922 c -13.938 15.703 -23.594 35.016 -46.875 31.875 c -17.688 -2.391 -30.281 -18.844 -22.5 -33.766 c 7.75 -14.906 31.813 -14.906 36.469 0 c 3.094 7.078 6.281 -9.563 -1.063 -19.313 c -7 -9.266 -24.656 -27.281 -57.219 -14.328 C 3.563 195.464 -8.625 242.089 6.406 274.558 c 20.938 45.281 80.406 68.219 142.719 62.484 c 44.156 -4.063 78.844 -30.016 106.875 -72.5 c 28.031 42.484 62.719 68.438 106.875 72.5 c 62.313 5.734 121.781 -17.203 142.719 -62.484 C 520.625 242.089 508.438 195.464 476.719 182.854 z" stroke-linecap="round"/>
</g>
</svg>