<svg xmlns="http://www.w3.org/2000/svg" xmlns:xlink="http://www.w3.org/1999/xlink" version="1.1" width="1000" height="1000" viewBox="0 0 1000 1000" xml:space="preserve">
<desc>Created with Fabric.js 3.5.0</desc>
<defs>
</defs>
<rect x="0" y="0" width="100%" height="100%" fill="#ffffff"/>
<g transform="matrix(6.895 0 0 6.895 500.0016 500.0016)" id="SqTAkxHfOiqhMRD7VgCj3">
<path style="stroke: rgb(6,47,56); stroke-width: 0; stroke-dasharray: none; stroke-linecap: butt; stroke-dashoffset: 0; stroke-linejoin: miter; stroke-miterlimit: 4; is-custom-font: none; font-file-url: none; fill: rgb(255,45,45); fill-rule: nonzero; opacity: 1;" vector-effect="non-scaling-stroke" transform=" translate(0, 0)" d="M -72.51655 -41.75039 C -72.51655 -58.74208 -58.74207 -72.51656 -41.75037999999999 -72.51656 L 41.75039000000001 -72.51656 L 41.75039000000001 -72.51656 C 58.74208000000001 -72.51656 72.51656000000001 -58.74208 72.51656000000001 -41.750389999999996 L 72.51656000000001 41.75038000000001 L 72.51656000000001 41.75038000000001 C 72.51656000000001 58.742070000000005 58.742080000000016 72.51655000000001 41.75039000000001 72.51655000000001 L -41.75037999999999 72.51655000000001 L -41.75037999999999 72.51655000000001 C -58.74206999999999 72.51655000000001 -72.51655 58.74207000000001 -72.51655 41.75038000000001 z" stroke-linecap="round"/>
</g>
<g transform="matrix(-1.8182 0 0 -1.8182 452.9964 480.7739)" style="" id="HKv8sYneDCY9wgfY6i20c">
		
<path xml:space="preserve" font-family="Playfair Display SC" font-size="551" font-style="normal" font-weight="normal" style="stroke: none; stroke-width: 1; stroke-dasharray: none; stroke-linecap: butt; stroke-dashoffset: 0; stroke-linejoin: miter; stroke-miterlimit: 4; is-custom-font: none; font-file-url: none; fill: rgb(255,255,255); fill-rule: nonzero; opacity: 1; white-space: pre;" d="M110.70-215.36Q135.50-215.36 152.03-217.02L152.03-217.02L152.03-206.00Q124.48-199.38 108.50-158.06L108.50-158.06L-20.98 175.85L-25.39 175.85L-29.80 175.85L-164.24-170.73Q-177.47-204.89-202.26-206.00L-202.26-206.00L-202.26-217.02Q-180.22-215.36-143.31-215.36L-143.31-215.36Q-95.92-215.36-72.78-217.02L-72.78-217.02L-72.78-206.00Q-93.72-204.89-102.81-200.76Q-111.90-196.63-111.90-185.61L-111.90-185.61Q-111.90-176.24-105.29-159.71L-105.29-159.71L-5.56 105.32L84.26-127.75Q95.28-157.51 95.28-172.94L95.28-172.94Q95.28-190.02 83.43-197.73Q71.58-205.45 47.34-206.00L47.34-206.00L47.34-217.02Q78.75-215.36 110.70-215.36L110.70-215.36Z"/></g>
</svg>