<svg xmlns="http://www.w3.org/2000/svg" xmlns:xlink="http://www.w3.org/1999/xlink" version="1.1" width="1000" height="1000" viewBox="0 0 1000 1000" xml:space="preserve">
<desc>Created with Fabric.js 3.5.0</desc>
<defs>
</defs>
<rect x="0" y="0" width="100%" height="100%" fill="rgba(255,255,255,0)"/>
<g transform="matrix(1.3308 0 0 1.0705 511.3122 614.9141)" id="802535">
<path style="stroke: none; stroke-width: 0; stroke-dasharray: none; stroke-linecap: butt; stroke-dashoffset: 0; stroke-linejoin: miter; stroke-miterlimit: 4; is-custom-font: none; font-file-url: none; fill: rgb(255,255,255); fill-rule: nonzero; opacity: 1;" vector-effect="non-scaling-stroke" transform=" translate(-256.0001, -256)" d="M 476.719 182.854 c -32.563 -12.953 -50.188 5.063 -57.219 14.328 c -7.344 9.75 -4.156 26.391 -1.031 19.313 c 4.625 -14.906 28.688 -14.906 36.438 0 c 7.781 14.922 -4.781 31.375 -22.5 33.766 c -23.25 3.141 -32.906 -16.172 -46.875 -31.875 c -13.969 -15.688 -35.094 -33.063 -65.719 -41.922 c -19.875 -5.75 -46.656 -1.141 -63.813 14.828 c -17.125 -15.969 -43.938 -20.578 -63.813 -14.828 c -30.625 8.859 -51.719 26.234 -65.719 41.922 c -13.938 15.703 -23.594 35.016 -46.875 31.875 c -17.688 -2.391 -30.281 -18.844 -22.5 -33.766 c 7.75 -14.906 31.813 -14.906 36.469 0 c 3.094 7.078 6.281 -9.563 -1.063 -19.313 c -7 -9.266 -24.656 -27.281 -57.219 -14.328 C 3.563 195.464 -8.625 242.089 6.406 274.558 c 20.938 45.281 80.406 68.219 142.719 62.484 c 44.156 -4.063 78.844 -30.016 106.875 -72.5 c 28.031 42.484 62.719 68.438 106.875 72.5 c 62.313 5.734 121.781 -17.203 142.719 -62.484 C 520.625 242.089 508.438 195.464 476.719 182.854 z" stroke-linecap="round"/>
</g>
</svg>